<?xml version="1.0" encoding="UTF-8"?>
<svg xmlns="http://www.w3.org/2000/svg" xmlns:xlink="http://www.w3.org/1999/xlink" width="100px" height="100px" viewBox="0 0 100 100" version="1.1">
<g id="surface1">
<path style=" stroke:none;fill-rule:nonzero;fill:rgb(40.392157%,22.745098%,71.764706%);fill-opacity:1;" d="M 48.824219 1.175781 C 21.859375 1.175781 0 23.035156 0 50 C 0 76.964844 21.859375 98.824219 48.824219 98.824219 C 75.789062 98.824219 97.648438 76.964844 97.648438 50 C 97.648438 23.035156 75.789062 1.175781 48.824219 1.175781 Z M 48.824219 1.175781 "/>
<path style=" stroke:none;fill-rule:nonzero;fill:rgb(100%,100%,100%);fill-opacity:1;" d="M 68.824219 35 L 60 35 L 55.292969 27.058594 L 47.941406 14.410156 L 46.765625 13.824219 L 40.589844 13.824219 C 39.707031 13.824219 39.117188 14.707031 39.410156 15.589844 L 53.824219 35 L 28.53125 35 C 27.941406 35 27.351562 35.589844 27.351562 36.175781 L 27.351562 41.765625 C 27.351562 42.351562 27.941406 42.941406 28.53125 42.941406 L 34.410156 42.941406 L 34.410156 57.648438 C 34.410156 60 35 62.058594 35.882812 64.117188 C 39.546875 71.160156 48.136719 74.023438 55.292969 70.589844 L 55.292969 82.351562 C 55.292969 82.941406 55.882812 83.53125 56.46875 83.53125 L 61.765625 83.53125 C 62.351562 83.53125 62.941406 82.941406 62.941406 82.351562 L 62.941406 42.941406 L 68.53125 42.941406 C 69.117188 42.941406 69.707031 42.351562 69.707031 41.765625 L 69.707031 36.175781 C 70 35.589844 69.410156 35 68.824219 35 Z M 55.292969 57.648438 C 55.292969 61.175781 52.351562 64.117188 48.824219 64.117188 C 45.292969 64.117188 42.351562 61.175781 42.351562 57.648438 L 42.351562 42.941406 L 55.292969 42.941406 Z M 55.292969 57.648438 "/>
</g>
</svg>
