<?xml version="1.0" encoding="UTF-8"?>
<svg xmlns="http://www.w3.org/2000/svg" xmlns:xlink="http://www.w3.org/1999/xlink" width="100px" height="85px" viewBox="0 0 99 85" version="1.1">
<g id="surface1">
<path style=" stroke:none;fill-rule:nonzero;fill:rgb(91.764706%,26.27451%,20.784314%);fill-opacity:1;" d="M 89.914062 16.441406 C 80.148438 10.757812 67.664062 14.136719 62.019531 23.980469 L 47.796875 48.824219 C 43.679688 56 48.976562 58.507812 54.886719 62.078125 L 68.574219 70.042969 C 73.207031 72.738281 79.128906 71.136719 81.800781 66.472656 L 96.425781 40.9375 C 101.339844 32.359375 98.421875 21.394531 89.914062 16.441406 Z M 89.914062 16.441406 "/>
<path style=" stroke:none;fill-rule:nonzero;fill:rgb(98.431373%,73.72549%,1.568627%);fill-opacity:1;" d="M 73.820312 26.726562 L 60.132812 18.761719 C 52.574219 14.53125 48.296875 14.25 45.195312 19.222656 L 25.007812 54.472656 C 19.371094 64.3125 22.726562 76.894531 32.484375 82.566406 C 40.996094 87.519531 51.871094 84.578125 56.78125 76 L 77.355469 40.070312 C 80.039062 35.394531 78.453125 29.421875 73.820312 26.726562 Z M 73.820312 26.726562 "/>
<path style=" stroke:none;fill-rule:nonzero;fill:rgb(20.392157%,65.882353%,32.54902%);fill-opacity:1;" d="M 76.453125 8.605469 L 66.839844 3.007812 C 56.207031 -3.179688 42.609375 0.488281 36.472656 11.210938 L 18.167969 43.171875 C 15.464844 47.886719 17.070312 53.925781 21.746094 56.644531 L 32.511719 62.910156 C 37.828125 66.007812 44.625 64.171875 47.695312 58.808594 L 68.609375 22.296875 C 72.941406 14.730469 82.53125 12.140625 90.03125 16.507812 Z M 76.453125 8.605469 "/>
<path style=" stroke:none;fill-rule:nonzero;fill:rgb(25.882353%,52.156863%,95.686275%);fill-opacity:1;" d="M 39.070312 20.355469 L 28.679688 14.316406 C 24.042969 11.628906 18.125 13.222656 15.449219 17.882812 L 2.980469 39.605469 C -3.15625 50.296875 0.484375 63.976562 11.117188 70.144531 L 19.027344 74.738281 L 28.625 80.3125 L 32.789062 82.730469 C 25.394531 77.738281 23.046875 67.742188 27.570312 59.867188 L 30.796875 54.246094 L 42.621094 33.648438 C 45.289062 29 43.699219 23.042969 39.070312 20.355469 Z M 39.070312 20.355469 "/>
</g>
</svg>
