<?xml version="1.0" encoding="UTF-8"?>
<svg xmlns="http://www.w3.org/2000/svg" xmlns:xlink="http://www.w3.org/1999/xlink" width="100px" height="100px" viewBox="0 0 100 100" version="1.1">
<g id="surface1">
<path style=" stroke:none;fill-rule:nonzero;fill:rgb(0.784314%,72.54902%,93.72549%);fill-opacity:1;" d="M 78.097656 43.492188 L 78.925781 42.871094 C 81.816406 40.390625 85.539062 40.804688 87.808594 43.699219 L 88.429688 43.699219 L 89.050781 43.078125 C 90.910156 41.21875 93.59375 40.804688 95.867188 41.839844 C 98.347656 42.871094 99.792969 44.9375 99.792969 47.625 L 99.792969 65.390625 C 99.792969 67.457031 98.554688 68.699219 96.28125 68.699219 L 93.800781 68.90625 C 92.976562 68.90625 92.769531 68.699219 92.769531 67.664062 L 92.769531 49.691406 C 92.769531 48.242188 92.355469 47.832031 90.910156 47.625 C 89.875 47.625 89.050781 48.242188 88.84375 49.484375 L 88.84375 65.390625 C 88.84375 67.457031 87.601562 68.699219 85.539062 68.699219 C 84.296875 68.699219 82.851562 69.316406 82.230469 68.492188 C 81.613281 67.871094 82.023438 66.425781 82.023438 65.390625 L 82.023438 49.898438 C 82.023438 48.242188 80.785156 47.210938 79.339844 47.832031 C 78.304688 48.242188 78.097656 49.070312 78.097656 49.898438 L 78.097656 65.390625 C 77.890625 67.457031 76.652344 68.699219 74.792969 68.699219 L 72.3125 68.699219 C 71.28125 68.90625 71.074219 68.699219 71.074219 67.664062 L 71.074219 42.253906 C 71.074219 41.839844 71.28125 41.632812 71.695312 41.632812 L 77.480469 41.632812 C 77.890625 41.632812 78.097656 41.839844 78.097656 42.253906 Z M 78.097656 43.492188 "/>
<path style=" stroke:none;fill-rule:nonzero;fill:rgb(2.352941%,18.823529%,43.529412%);fill-opacity:1;" d="M 34.296875 54.648438 L 34.296875 63.121094 C 34.296875 66.839844 32.230469 68.699219 28.71875 68.699219 L 23.761719 68.90625 C 20.453125 68.699219 18.183594 66.632812 17.976562 63.328125 L 17.976562 56.300781 C 18.183594 52.996094 20.660156 50.515625 23.96875 50.515625 L 26.652344 50.515625 C 27.6875 50.515625 27.890625 50.101562 27.890625 49.277344 C 27.890625 48.449219 27.480469 48.039062 26.652344 48.039062 L 23.96875 48.039062 C 21.695312 48.039062 20.453125 46.796875 20.453125 44.523438 C 20.453125 43.699219 20.042969 42.457031 20.660156 41.839844 C 21.074219 41.425781 22.3125 41.632812 23.140625 41.632812 L 30.164062 41.632812 C 32.644531 41.632812 34.296875 43.285156 34.296875 45.765625 Z M 27.890625 59.402344 L 27.890625 58.367188 C 27.890625 56.300781 27.890625 56.300781 25.828125 56.300781 C 24.792969 56.507812 24.171875 56.921875 24.171875 57.953125 L 24.171875 60.640625 C 24.171875 62.085938 24.792969 62.5 27.066406 62.5 C 28.511719 62.707031 27.6875 61.46875 27.890625 60.847656 Z M 27.890625 59.402344 "/>
<path style=" stroke:none;fill-rule:nonzero;fill:rgb(2.352941%,18.823529%,43.529412%);fill-opacity:1;" d="M 52.6875 52.582031 L 52.6875 62.085938 C 52.6875 64.359375 52.066406 66.632812 49.585938 67.871094 C 48.761719 68.492188 47.726562 68.699219 46.488281 68.699219 L 39.460938 68.90625 C 38.84375 68.90625 38.84375 68.699219 38.84375 68.078125 L 38.84375 65.597656 C 38.84375 63.945312 40.082031 62.5 41.734375 62.5 L 45.042969 62.5 C 45.867188 62.5 46.28125 62.085938 46.28125 61.261719 C 46.28125 60.226562 45.867188 60.019531 45.042969 60.019531 C 43.59375 59.8125 42.148438 60.019531 40.703125 59.609375 C 38.222656 58.988281 36.363281 56.921875 36.363281 54.441406 L 36.363281 42.253906 C 36.363281 41.839844 36.363281 41.632812 36.984375 41.632812 L 41.941406 41.632812 C 42.769531 41.632812 42.5625 42.046875 42.5625 42.664062 L 42.5625 51.757812 C 42.5625 52.996094 43.183594 53.617188 44.421875 53.824219 C 45.660156 53.824219 46.28125 53.203125 46.28125 51.757812 L 46.28125 42.664062 C 46.28125 41.839844 46.488281 41.632812 47.3125 41.632812 L 51.859375 41.632812 C 52.6875 41.632812 52.6875 42.046875 52.6875 42.664062 Z M 0 57.128906 L 0 47.003906 C 0 43.699219 2.066406 41.632812 5.371094 41.632812 C 7.4375 41.632812 9.710938 41.425781 11.777344 41.839844 C 14.667969 42.457031 16.324219 44.523438 16.324219 47.417969 L 16.324219 56.300781 C 16.324219 60.226562 14.050781 62.5 10.332031 62.5 L 7.023438 62.5 C 6.40625 62.5 6.199219 62.707031 6.199219 63.328125 L 6.199219 65.804688 C 6.199219 67.457031 4.957031 68.699219 3.097656 68.699219 C 2.066406 68.699219 0.828125 69.113281 0.207031 68.699219 C -0.414062 68.078125 0 66.632812 0 65.804688 Z M 6.199219 52.167969 L 6.199219 54.027344 C 6.199219 56.300781 6.199219 56.300781 8.675781 56.09375 C 9.503906 56.09375 10.125 55.683594 10.125 54.648438 L 10.125 51.136719 C 10.125 47.832031 9.503906 48.039062 6.816406 48.039062 C 6.40625 48.039062 6.199219 48.242188 6.199219 48.65625 Z M 6.199219 52.167969 "/>
<path style=" stroke:none;fill-rule:nonzero;fill:rgb(0.784314%,72.54902%,93.72549%);fill-opacity:1;" d="M 58.472656 57.128906 L 58.472656 48.863281 C 58.472656 48.242188 58.265625 48.039062 57.644531 48.039062 C 56.816406 48.039062 55.578125 48.449219 54.957031 47.832031 C 54.339844 47.210938 54.753906 45.972656 54.753906 44.9375 L 54.753906 44.730469 C 54.753906 43.90625 54.546875 42.664062 54.957031 42.046875 C 55.371094 41.425781 56.613281 41.632812 57.4375 41.425781 C 59.089844 41.011719 60.539062 39.980469 61.570312 38.53125 C 62.398438 37.707031 63.222656 37.085938 64.460938 36.671875 C 65.082031 36.671875 65.496094 36.671875 65.496094 37.5 L 65.496094 41.011719 C 65.496094 41.632812 65.496094 41.632812 66.117188 41.632812 L 68.59375 41.632812 C 69.007812 41.632812 69.214844 41.839844 69.214844 42.253906 L 69.214844 47.417969 C 69.214844 47.832031 69.007812 48.242188 68.59375 48.039062 L 68.183594 48.039062 C 67.355469 48.242188 66.117188 47.625 65.703125 48.242188 C 65.082031 48.863281 65.496094 50.101562 65.496094 50.929688 L 65.496094 67.871094 C 65.496094 68.699219 65.289062 68.90625 64.460938 68.90625 L 62.191406 68.699219 C 59.917969 68.699219 58.472656 67.253906 58.472656 64.980469 Z M 58.472656 57.128906 "/>
</g>
</svg>
