<?xml version="1.0" encoding="utf-8"?>
<!-- Generator: Adobe Illustrator 19.0.0, SVG Export Plug-In . SVG Version: 6.00 Build 0)  -->
<svg version="1.1" id="Layer_1" xmlns="http://www.w3.org/2000/svg" xmlns:xlink="http://www.w3.org/1999/xlink" x="0px" y="0px"
	 viewBox="0 0 200 200" style="enable-background:new 0 0 200 200;" xml:space="preserve">
<style type="text/css">
	.st0{fill:#273778;}
	.st1{fill:none;stroke:#39A4DC;stroke-width:12;stroke-miterlimit:10;}
</style>
<g id="XMLID_59_">
	<path id="XMLID_13_" class="st0" d="M179.4,37.8c6.4,0,11.6,5.2,11.6,11.6v105.2c0,6.4-5.2,11.6-11.6,11.6H22.6
		c-6.4,0-11.6-5.2-11.6-11.6V49.4c0-6.4,5.2-11.6,11.6-11.6H179.4 M179.4,27.8H22.6C10.7,27.8,1,37.5,1,49.4v105.2
		c0,11.9,9.7,21.6,21.6,21.6h156.8c11.9,0,21.6-9.7,21.6-21.6V49.4C201,37.5,191.3,27.8,179.4,27.8L179.4,27.8z"/>
</g>
<g id="XMLID_1_">
	<path id="XMLID_3_" class="st0" d="M40.1,110.2c-4.2-4.2-6.3-10.1-6.3-17.9V62.8H46v29.1c0,9.5,3.9,14.2,11.8,14.2
		c3.8,0,6.7-1.1,8.7-3.4c2-2.3,3-5.9,3-10.7V62.8h12.1v29.6c0,7.7-2.1,13.7-6.3,17.9c-4.2,4.2-10.1,6.3-17.6,6.3
		S44.3,114.4,40.1,110.2z"/>
	<path id="XMLID_5_" class="st0" d="M128.7,65.1c3.4,1.6,6.1,3.8,8,6.6c1.9,2.9,2.8,6.3,2.8,10.2c0,3.9-0.9,7.3-2.8,10.1
		c-1.9,2.9-4.5,5.1-8,6.6c-3.4,1.5-7.5,2.3-12.2,2.3h-10.6v14.6H93.7V62.8h22.9C121.2,62.8,125.3,63.6,128.7,65.1z M124.2,88.7
		c1.9-1.6,2.9-3.8,2.9-6.8c0-3-1-5.2-2.9-6.8c-1.9-1.6-4.7-2.4-8.4-2.4h-10v18.3h10C119.5,91.1,122.3,90.3,124.2,88.7z"/>
	<path id="XMLID_8_" class="st0" d="M148.2,62.8h12.2v52.8h-12.2V62.8z"/>
</g>
<line id="XMLID_2_" class="st1" x1="34" y1="142" x2="167" y2="142"/>
</svg>
