<?xml version="1.0" encoding="utf-8"?>
<!-- Generator: Adobe Illustrator 19.0.0, SVG Export Plug-In . SVG Version: 6.00 Build 0)  -->
<svg version="1.1" id="Layer_1" xmlns="http://www.w3.org/2000/svg" xmlns:xlink="http://www.w3.org/1999/xlink" x="0px" y="0px"
	 viewBox="0 0 200 200" style="enable-background:new 0 0 200 200;" xml:space="preserve">
<style type="text/css">
	.st0{fill:none;stroke:#273778;stroke-width:20;stroke-miterlimit:10;}
	.st1{fill:#273778;}
	.st2{fill:none;stroke:#39A4DC;stroke-width:10;stroke-miterlimit:10;}
</style>
<line id="XMLID_7_" class="st0" x1="8" y1="71" x2="193" y2="71"/>
<g id="XMLID_1_">
	<g id="XMLID_25_">
		<path id="XMLID_26_" class="st1" d="M184.8,42c2.9,0,5.3,2.4,5.3,5.3v105.5c0,2.9-2.4,5.3-5.3,5.3H15.3c-2.9,0-5.3-2.4-5.3-5.3
			V47.3c0-2.9,2.4-5.3,5.3-5.3H184.8 M184.8,32H15.3C6.8,32,0,38.8,0,47.3v105.5c0,8.4,6.8,15.3,15.3,15.3h169.5
			c8.4,0,15.3-6.8,15.3-15.3V47.3C200,38.8,193.2,32,184.8,32L184.8,32z"/>
	</g>
</g>
<line id="XMLID_8_" class="st2" x1="25" y1="111" x2="113" y2="111"/>
<line id="XMLID_10_" class="st2" x1="25" y1="135" x2="69" y2="135"/>
</svg>
