<?xml version="1.0" encoding="utf-8"?>
<!-- Generator: Adobe Illustrator 19.0.0, SVG Export Plug-In . SVG Version: 6.00 Build 0)  -->
<svg version="1.1" id="Layer_1" xmlns="http://www.w3.org/2000/svg" xmlns:xlink="http://www.w3.org/1999/xlink" x="0px" y="0px"
	 viewBox="0 0 200 200" style="enable-background:new 0 0 200 200;" xml:space="preserve">
<style type="text/css">
	.st0{fill:none;stroke:#39A4DC;stroke-width:10;stroke-miterlimit:10;}
	.st1{fill:#273778;}
	.st2{fill:#39A4DC;}
	.st3{fill:none;stroke:#273778;stroke-width:17;stroke-miterlimit:10;}
</style>
<path id="XMLID_1_" class="st0" d="M85.8,145.3h102.1c4.5,0,8.1-3.6,8.1-8.1v-24.3c0-4.5-3.6-8.1-8.1-8.1H85.8
	c-4.5,0-8.1,3.6-8.1,8.1v24.3C77.7,141.7,81.3,145.3,85.8,145.3z"/>
<g id="XMLID_59_">
	<path id="XMLID_13_" class="st1" d="M188.8,35.8c1.2,0,2.2,1,2.2,2.2v124c0,1.2-1,2.2-2.2,2.2H13.2c-1.2,0-2.2-1-2.2-2.2V38
		c0-1.2,1-2.2,2.2-2.2H188.8 M188.8,25.8H13.2C6.4,25.8,1,31.3,1,38v124c0,6.7,5.4,12.2,12.2,12.2h175.7c6.7,0,12.2-5.4,12.2-12.2
		V38C201,31.3,195.6,25.8,188.8,25.8L188.8,25.8z"/>
</g>
<circle id="XMLID_7_" class="st2" cx="101" cy="126" r="10.3"/>
<line id="XMLID_8_" class="st3" x1="196" y1="68.5" x2="43" y2="68.5"/>
</svg>
